<svg width="85" height="28" viewBox="0 0 85 28" fill="none" xmlns="http://www.w3.org/2000/svg">
<g clip-path="url(#clip0_45_713)">
<path d="M36.2463 14.3591C36.2463 18.2456 33.1612 21.1095 29.375 21.1095C25.5888 21.1095 22.5037 18.2456 22.5037 14.3591C22.5037 10.4452 25.5888 7.60864 29.375 7.60864C33.1612 7.60864 36.2463 10.4452 36.2463 14.3591ZM33.2384 14.3591C33.2384 11.9304 31.4503 10.2686 29.375 10.2686C27.2997 10.2686 25.5116 11.9304 25.5116 14.3591C25.5116 16.7634 27.2997 18.4495 29.375 18.4495C31.4503 18.4495 33.2384 16.7604 33.2384 14.3591Z" fill="#001858"/>
<path d="M51.0698 14.3591C51.0698 18.2456 47.9846 21.1095 44.1985 21.1095C40.4123 21.1095 37.3271 18.2456 37.3271 14.3591C37.3271 10.4482 40.4123 7.60864 44.1985 7.60864C47.9846 7.60864 51.0698 10.4452 51.0698 14.3591ZM48.0619 14.3591C48.0619 11.9304 46.2738 10.2686 44.1985 10.2686C42.1232 10.2686 40.3351 11.9304 40.3351 14.3591C40.3351 16.7634 42.1232 18.4495 44.1985 18.4495C46.2738 18.4495 48.0619 16.7604 48.0619 14.3591Z" fill="#001858"/>
<path d="M65.2757 8.01647V20.1356C65.2757 25.1208 62.2925 27.1569 58.7657 27.1569C55.4459 27.1569 53.4478 24.9686 52.6942 23.1791L55.3131 22.1047C55.7794 23.2034 56.922 24.4999 58.7626 24.4999C61.0201 24.4999 62.4191 23.1273 62.4191 20.5434V19.5726H62.3141C61.6409 20.3912 60.3438 21.1065 58.707 21.1065C55.2822 21.1065 52.1445 18.1665 52.1445 14.3834C52.1445 10.573 55.2822 7.60864 58.707 7.60864C60.3407 7.60864 61.6378 8.32386 62.3141 9.11821H62.4191V8.01951H65.2757V8.01647ZM62.6322 14.3834C62.6322 12.0065 61.0232 10.2686 58.9757 10.2686C56.9004 10.2686 55.1617 12.0065 55.1617 14.3834C55.1617 16.736 56.9004 18.4495 58.9757 18.4495C61.0232 18.4495 62.6322 16.736 62.6322 14.3834Z" fill="#001858"/>
<path d="M69.9853 0.913086V20.6957H67.0515V0.913086H69.9853Z" fill="#001858"/>
<path d="M81.418 16.5809L83.7527 18.1148C82.9991 19.2135 81.1833 21.1066 78.0456 21.1066C74.1544 21.1066 71.2484 18.1422 71.2484 14.3561C71.2484 10.3418 74.1791 7.60571 77.709 7.60571C81.2636 7.60571 83.0022 10.3935 83.5705 11.9001L83.8824 12.667L74.7258 16.4044C75.4268 17.7588 76.5169 18.4496 78.0456 18.4496C79.5774 18.4496 80.6397 17.707 81.418 16.5809ZM74.2316 14.1522L80.3525 11.6475C80.0159 10.8044 79.003 10.217 77.8109 10.217C76.2822 10.217 74.1544 11.547 74.2316 14.1522Z" fill="#001858"/>
<path d="M11.3984 12.6031V9.73915H21.1912C21.2869 10.2383 21.3364 10.8287 21.3364 11.4678C21.3364 13.6165 20.7403 16.2735 18.8194 18.1665C16.9511 20.0839 14.5639 21.1065 11.4015 21.1065C5.54003 21.1065 0.611206 16.4013 0.611206 10.6248C0.611206 4.84828 5.54003 0.143066 11.4015 0.143066C14.6441 0.143066 16.9541 1.39698 18.6897 3.03133L16.6391 5.0522C15.3946 3.90176 13.7084 3.00698 11.3984 3.00698C7.11812 3.00698 3.77047 6.40654 3.77047 10.6248C3.77047 14.8431 7.11812 18.2426 11.3984 18.2426C14.1747 18.2426 15.7559 17.1439 16.7689 16.1457C17.5903 15.3361 18.1308 14.1796 18.3439 12.6L11.3984 12.6031Z" fill="#001858"/>
</g>
<defs>
<clipPath id="clip0_45_713">
<rect width="84" height="28" fill="white" transform="translate(0.5)"/>
</clipPath>
</defs>
</svg>
