<svg width="24" height="24" viewBox="0 0 24 24" fill="none" xmlns="http://www.w3.org/2000/svg">
<g opacity="0.2">
<path d="M14.9518 14.4061C13.3594 14.4554 11.8799 14.7081 10.4381 15.1607C6.99157 16.2432 4.15892 18.22 1.92667 21.059C1.87111 21.1298 1.81735 21.2014 1.76268 21.2713C1.55837 21.5303 1.30118 21.6594 0.977678 21.5366C0.66045 21.4165 0.535888 21.1584 0.540369 20.8269C0.560084 19.4477 0.706152 18.0794 1.1354 16.7683C3.16153 10.5788 7.39393 6.96921 13.8451 5.98526C13.9186 5.97361 13.9921 5.96107 14.0665 5.95121C14.9483 5.83382 14.9402 5.83382 14.9536 4.91171C14.9608 4.42153 14.9357 3.91611 15.0424 3.44475C15.2628 2.47156 16.1195 2.14179 16.9744 2.66064C17.1886 2.79058 17.383 2.96263 17.5614 3.14007C19.2228 4.79342 20.8806 6.44945 22.534 8.10997C23.7661 9.34752 23.7688 10.9139 22.5393 12.1479C20.886 13.8084 19.2317 15.4698 17.5623 17.1133C17.2925 17.3786 16.9636 17.6286 16.6151 17.7612C15.7987 18.0722 15.0459 17.4915 14.9734 16.5192C14.9348 15.9994 14.9572 15.4752 14.9527 14.9528C14.951 14.7933 14.9518 14.6329 14.9518 14.4061ZM16.296 3.75839C16.2781 4.03171 16.2593 4.18853 16.2584 4.34625C16.2548 4.98877 16.2602 5.6304 16.2557 6.27292C16.2512 6.96921 16.072 7.14574 15.3927 7.18428C14.8569 7.21474 14.3183 7.24432 13.7869 7.31601C8.01584 8.09743 3.38736 12.3746 2.15429 18.0596C2.10321 18.2953 2.07633 18.5373 2.03511 18.798C2.12293 18.7756 2.15698 18.7774 2.1758 18.7613C2.28602 18.6609 2.39266 18.557 2.50019 18.453C6.08828 14.9958 10.3637 13.1838 15.3533 13.0853C16.0487 13.0718 16.2512 13.2851 16.2557 13.9948C16.2602 14.6669 16.2557 15.339 16.2611 16.0111C16.262 16.1464 16.288 16.2808 16.3113 16.5013C16.5075 16.3167 16.6285 16.2082 16.7432 16.0935C18.3491 14.4886 19.9549 12.8845 21.559 11.2778C22.3431 10.4928 22.3458 9.77497 21.5653 8.99265C19.9612 7.3859 18.3562 5.78095 16.7495 4.17688C16.6357 4.06218 16.5111 3.95644 16.296 3.75839Z" fill="#001858"/>
</g>
</svg>
