<svg width="23" height="22" viewBox="0 0 23 22" fill="none" xmlns="http://www.w3.org/2000/svg">
<path d="M10.9737 21.9967C8.76102 21.9967 6.54747 22.0071 4.33479 21.9933C2.27652 21.9812 0.610756 20.6864 0.144928 18.742C0.0552133 18.3684 0.00949314 17.9751 0.0086305 17.5912C-0.000858587 13.7542 -0.00172123 9.91712 0.00431728 6.08095C0.00776785 3.53356 1.83312 1.71338 4.38137 1.69786C4.46764 1.69699 4.55477 1.68923 4.64017 1.69699C4.96193 1.72632 5.13446 1.61245 5.09392 1.25963C5.07753 1.11816 5.08443 0.971509 5.09737 0.829173C5.1405 0.362483 5.46831 0.023464 5.88669 0.00103522C6.30076 -0.0205309 6.65875 0.296922 6.73898 0.760162C6.75106 0.830898 6.75278 0.90336 6.75364 0.97496C6.76055 1.70217 6.62511 1.69786 7.52226 1.69786C9.92214 1.69699 12.322 1.68837 14.7219 1.70562C15.1523 1.70907 15.3439 1.5883 15.2766 1.14749C15.2636 1.06295 15.2714 0.97496 15.2783 0.889558C15.3163 0.367659 15.6501 0.00707373 16.0987 0.00103522C16.561 -0.00500328 16.9096 0.37456 16.9372 0.914575C16.9768 1.6944 16.9768 1.6944 17.7317 1.69872C20.122 1.71079 21.9992 3.51372 22.0181 5.90497C22.0483 9.85674 22.0483 13.8085 22.0181 17.7603C21.9992 20.1834 20.1177 21.9812 17.6575 21.9941C15.4284 22.0062 13.201 21.9967 10.9737 21.9967ZM11.0229 8.39973C11.0229 8.4006 11.0229 8.4006 11.0229 8.40146C8.10627 8.40146 5.18967 8.39973 2.27307 8.40232C1.67095 8.40318 1.66836 8.41008 1.66836 8.99582C1.6675 11.884 1.66577 14.7712 1.66836 17.6593C1.66922 19.2535 2.75011 20.3344 4.34773 20.3353C8.80156 20.3379 13.2554 20.337 17.7101 20.3353C19.2715 20.3344 20.3593 19.2406 20.3601 17.6749C20.3619 14.8161 20.361 11.9564 20.361 9.09761C20.361 8.40318 20.361 8.4006 19.6441 8.4006C16.7707 8.39887 13.8963 8.39973 11.0229 8.39973ZM11.0151 6.78659C13.8886 6.78659 16.762 6.78659 19.6355 6.78659C19.7796 6.78659 19.9366 6.81937 20.0625 6.77106C20.179 6.7262 20.3317 6.60198 20.3463 6.49588C20.6086 4.57218 19.2283 3.14451 17.3003 3.31531C17.0252 3.33947 16.9251 3.44816 16.9346 3.71817C16.9484 4.13396 16.9484 4.55148 16.9337 4.96814C16.9156 5.49435 16.5861 5.85493 16.1332 5.87132C15.6682 5.88771 15.3042 5.51764 15.28 4.97676C15.2628 4.58944 15.2516 4.19952 15.2809 3.81392C15.3102 3.42918 15.1506 3.31272 14.7874 3.31445C12.2728 3.32308 9.7591 3.32221 7.24449 3.31445C6.88218 3.31359 6.72259 3.42918 6.74933 3.81392C6.7778 4.21419 6.7709 4.61877 6.74674 5.0199C6.71483 5.53317 6.34303 5.88771 5.89531 5.87132C5.45968 5.85493 5.13015 5.50556 5.09564 5.01041C5.08357 4.83874 5.09219 4.66535 5.09219 4.49368C5.09219 3.19454 5.03698 3.14968 3.73957 3.3826C3.68349 3.39295 3.62742 3.40848 3.57221 3.42314C2.4387 3.73369 1.67008 4.72142 1.67095 5.8972C1.67095 6.90391 1.54069 6.78486 2.56723 6.78745C5.3829 6.7909 8.19944 6.78745 11.0151 6.78659Z" fill="#001858"/>
<path d="M11.0298 11.0251C11.3015 11.0251 11.5758 11.007 11.8458 11.0294C12.3324 11.0699 12.6334 11.3805 12.6464 11.8213C12.6602 12.288 12.3677 12.6408 11.8648 12.6701C11.2937 12.7038 10.7184 12.702 10.1473 12.6701C9.67197 12.6434 9.36055 12.2914 9.35538 11.8618C9.3502 11.4184 9.67887 11.0682 10.1706 11.0285C10.4552 11.0061 10.7434 11.0251 11.0298 11.0251Z" fill="#001858"/>
<path d="M11.0212 16.112C11.2938 16.1129 11.5663 16.0965 11.8372 16.1163C12.3212 16.1508 12.63 16.4605 12.6472 16.8996C12.6662 17.3697 12.3798 17.7234 11.8743 17.7553C11.3032 17.7916 10.7279 17.7898 10.1568 17.7571C9.66163 17.7286 9.33987 17.3576 9.35367 16.9151C9.36661 16.4752 9.70994 16.1439 10.2042 16.1146C10.4751 16.0991 10.7486 16.112 11.0212 16.112Z" fill="#001858"/>
<path d="M16.0961 11.0227C16.3678 11.0227 16.6412 11.008 16.9121 11.0261C17.4193 11.0598 17.7377 11.3764 17.7472 11.8319C17.7575 12.3089 17.4383 12.6531 16.9104 12.6772C16.3816 12.7014 15.8502 12.6997 15.3214 12.6781C14.7866 12.6565 14.4674 12.3279 14.4665 11.8508C14.4665 11.3738 14.79 11.0537 15.3223 11.0244C15.5793 11.0106 15.8373 11.0218 16.0952 11.0218C16.0961 11.0218 16.0961 11.0227 16.0961 11.0227Z" fill="#001858"/>
<path d="M5.93327 16.1134C6.205 16.1134 6.47846 16.097 6.74846 16.1168C7.23154 16.1513 7.54037 16.4601 7.55849 16.8984C7.57746 17.3676 7.29365 17.723 6.78815 17.7541C6.20414 17.7903 5.61409 17.7912 5.03008 17.7498C4.54441 17.7153 4.27009 17.3676 4.28131 16.9173C4.29166 16.4774 4.59703 16.1556 5.07494 16.1177C5.35961 16.0952 5.64687 16.1134 5.93327 16.1134Z" fill="#001858"/>
<path d="M16.1107 16.1125C16.3825 16.1125 16.6559 16.0978 16.9259 16.1159C17.4116 16.1479 17.7213 16.4515 17.7437 16.8906C17.7679 17.3573 17.4823 17.7196 16.9794 17.7524C16.3954 17.7903 15.8054 17.7921 15.2213 17.7507C14.7167 17.7153 14.4415 17.3547 14.4691 16.8811C14.4941 16.4455 14.8073 16.1453 15.2947 16.1151C15.5664 16.0978 15.839 16.1116 16.1107 16.1125Z" fill="#001858"/>
<path d="M5.92289 12.6806C5.65115 12.6806 5.3777 12.6987 5.10769 12.6772C4.58148 12.6358 4.26575 12.2976 4.28128 11.8206C4.29594 11.3668 4.61685 11.0468 5.1258 11.0269C5.6546 11.0062 6.18513 11.0071 6.71393 11.0269C7.22548 11.0459 7.54379 11.3616 7.55846 11.818C7.57398 12.3002 7.26516 12.6358 6.73722 12.6772C6.46808 12.6979 6.19548 12.6806 5.92289 12.6806Z" fill="#001858"/>
</svg>
