<svg width="24" height="24" viewBox="0 0 24 24" fill="none" xmlns="http://www.w3.org/2000/svg">
<g clip-path="url(#clip0_24_460)">
<path d="M12 13.5183C4.7889 13.5183 0.817505 16.9297 0.817505 23.1242C0.817505 23.608 1.20961 24.0001 1.69341 24.0001H22.3066C22.7903 24.0001 23.1825 23.608 23.1825 23.1242C23.1825 16.93 19.2111 13.5183 12 13.5183ZM2.60119 22.2483C2.94572 17.6167 6.10336 15.2702 12 15.2702C17.8966 15.2702 21.0543 17.6167 21.3991 22.2483H2.60119V22.2483Z" fill="#FC96BB"/>
<path d="M12 0C8.68757 0 6.18979 2.54803 6.18979 5.92673C6.18979 9.40439 8.79623 12.2333 12 12.2333C15.2038 12.2333 17.8102 9.40439 17.8102 5.92702C17.8102 2.54803 15.3124 0 12 0ZM12 10.4818C9.76204 10.4818 7.9416 8.43853 7.9416 5.92702C7.9416 3.50775 9.64846 1.75181 12 1.75181C14.3139 1.75181 16.0584 3.54656 16.0584 5.92702C16.0584 8.43853 14.2379 10.4818 12 10.4818Z" fill="#FC96BB"/>
</g>
<defs>
<clipPath id="clip0_24_460">
<rect width="24" height="24" fill="white"/>
</clipPath>
</defs>
</svg>
