<svg width="24" height="24" viewBox="0 0 24 24" fill="none" xmlns="http://www.w3.org/2000/svg">
<g clip-path="url(#clip0_24_559)">
<path d="M16.0277 2.74617C12.3665 -0.915064 6.40757 -0.915064 2.74634 2.74617C-0.914103 6.40819 -0.914103 12.3663 2.74634 16.0284C6.00676 19.288 11.0847 19.6372 14.7436 17.0919C14.8205 17.4562 14.9967 17.8038 15.2801 18.0872L20.612 23.4191C21.389 24.1945 22.6446 24.1945 23.4177 23.4191C24.1939 22.6429 24.1939 21.3873 23.4177 20.6134L18.0857 15.2799C17.804 14.999 17.4556 14.822 17.0913 14.745C19.6382 11.0853 19.2889 6.00818 16.0277 2.74617ZM14.3443 14.345C11.6109 17.0784 7.16236 17.0784 4.42973 14.345C1.69789 11.6115 1.69789 7.16377 4.42973 4.43035C7.16236 1.69772 11.6109 1.69772 14.3443 4.43035C17.0778 7.16377 17.0778 11.6115 14.3443 14.345Z" fill="#F582AE"/>
</g>
<defs>
<clipPath id="clip0_24_559">
<rect width="24" height="24" fill="white"/>
</clipPath>
</defs>
</svg>
