<svg width="24" height="24" viewBox="0 0 24 24" fill="none" xmlns="http://www.w3.org/2000/svg">
<path d="M6.56509 1.96403C6.61089 2.97361 6.68848 3.91496 6.69128 4.8563C6.70157 9.88831 6.71746 14.9203 6.67539 19.9523C6.66417 21.3097 7.58028 22.1089 8.8301 22.0706C10.0285 22.0332 11.2288 22.0594 12.4281 22.0641C13.1274 22.0669 13.5387 22.4389 13.5303 23.0475C13.5219 23.6364 13.119 23.9944 12.4422 23.9972C11.1643 24.0019 9.88736 24 8.60949 23.9982C6.34915 23.9944 4.70297 22.3856 4.69549 20.1253C4.68053 16.0281 4.69082 11.9308 4.69082 7.83363C4.69082 7.4756 4.67212 7.11664 4.68895 6.75861C4.7039 6.43517 4.57957 6.32019 4.25333 6.3258C3.22505 6.34169 2.19678 6.33421 1.1685 6.33421C0.340266 6.33421 0.00560879 6.00423 0.0018696 5.17787C0 4.53847 -0.0018696 3.9 0.00373919 3.26153C0.0177612 1.4555 1.47324 0.00469648 3.28581 0.00282688C8.31783 -0.000912308 13.3498 -0.00184711 18.3819 0.00189209C20.4973 0.00376168 22.1631 1.60881 22.1986 3.73267C22.2351 5.91355 22.2164 8.09444 22.2099 10.2753C22.208 10.9493 21.7929 11.3812 21.2012 11.3793C20.6104 11.3774 20.2159 10.9493 20.2131 10.2585C20.2029 8.12435 20.2094 5.99021 20.201 3.85606C20.1963 2.70813 19.4522 1.94627 18.3015 1.94347C14.4688 1.93318 10.6371 1.93786 6.80439 1.93879C6.69783 1.93973 6.5922 1.96123 6.56509 1.96403ZM3.32695 4.39077C3.32695 4.3917 3.32695 4.39357 3.32695 4.39451C3.42043 4.39451 3.51391 4.39451 3.60739 4.39451C4.80767 4.39731 4.85721 4.3487 4.67399 3.12692C4.59734 2.61465 4.30568 2.23606 3.81211 2.05003C2.85768 1.6892 1.95279 2.37628 1.94158 3.48214C1.93036 4.57212 1.8509 4.37488 2.81281 4.38983C2.98481 4.39357 3.15588 4.39077 3.32695 4.39077Z" fill="#F582AE"/>
<path d="M19.0745 13.1818C20.0551 13.1818 21.0386 13.1472 22.0163 13.2005C22.3547 13.2192 22.6819 13.4538 23.0128 13.5912C23.0259 13.5968 23.0343 13.6136 23.0465 13.623C23.9504 14.3026 24.2571 15.0878 23.627 16.1516C23.2428 16.8013 23.3438 17.522 23.5765 18.2306C23.8056 18.9252 23.9607 19.6309 23.8336 20.3834C23.6756 21.3154 23.1951 21.9988 22.379 22.4344C21.9285 22.6746 21.4284 22.8214 20.9684 23.0467C20.5412 23.2551 20.1178 23.4842 19.728 23.7552C19.2989 24.0525 18.8595 24.0628 18.4314 23.7908C17.9519 23.486 17.4405 23.2308 16.9348 22.9709C16.7151 22.8578 16.4683 22.7961 16.2421 22.6952C14.5492 21.9371 13.9332 20.6816 14.3613 18.8728C14.4006 18.7064 14.4286 18.5335 14.4931 18.3774C14.8773 17.4472 14.7408 16.5639 14.3192 15.6786C13.9631 14.9308 14.0781 14.6943 14.6221 14.0558C15.1961 13.3809 15.8504 13.0873 16.7413 13.1677C17.5125 13.2369 18.2959 13.1818 19.0745 13.1818ZM16.3328 15.1654C16.4646 15.7955 16.6974 16.3732 16.6777 16.9424C16.6506 17.723 16.4562 18.5017 16.2907 19.272C16.0953 20.1806 16.2758 20.5853 17.1161 20.9294C17.692 21.1649 18.2706 21.3921 18.8511 21.6146C18.9465 21.651 19.0745 21.6856 19.1605 21.652C19.8981 21.3603 20.6347 21.0677 21.3583 20.7452C21.7303 20.5797 21.935 20.261 21.8817 19.8403C21.8359 19.472 21.7864 19.0962 21.6705 18.7466C21.319 17.6865 21.3003 16.6386 21.7116 15.5954C21.8518 15.2402 21.749 15.1159 21.3741 15.1177C19.7859 15.1261 18.1986 15.1187 16.6104 15.1205C16.5226 15.1215 16.4337 15.1486 16.3328 15.1654Z" fill="#F582AE"/>
<path d="M13.5013 6.70546C12.1785 6.70546 10.8567 6.70733 9.534 6.70452C8.88712 6.70265 8.44963 6.31658 8.44028 5.75009C8.43094 5.19015 8.87683 4.77229 9.51437 4.77136C12.1748 4.76762 14.8343 4.76762 17.4947 4.77136C18.1631 4.77229 18.5763 5.14528 18.5772 5.72672C18.5782 6.3306 18.1622 6.70546 17.4686 6.70826C16.1458 6.71293 14.824 6.7092 13.5013 6.7092C13.5013 6.70733 13.5013 6.70639 13.5013 6.70546Z" fill="#F582AE"/>
<path d="M13.4938 10.4475C12.187 10.4475 10.8801 10.4493 9.57327 10.4465C8.89741 10.4456 8.44123 10.052 8.43936 9.47715C8.43843 8.90131 8.889 8.50963 9.5714 8.5087C12.201 8.50589 14.8296 8.50589 17.4592 8.5087C18.1613 8.50963 18.5754 8.87607 18.5763 9.47808C18.5772 10.081 18.1603 10.4456 17.4602 10.4465C16.1393 10.4484 14.8166 10.4475 13.4938 10.4475Z" fill="#F582AE"/>
<path d="M10.6922 14.1847C10.2734 14.1857 9.8537 14.196 9.43492 14.1829C8.86375 14.1642 8.4431 13.7482 8.44029 13.221C8.43749 12.6928 8.86001 12.2628 9.42557 12.2525C10.2482 12.2385 11.0708 12.2366 11.8934 12.2488C12.4749 12.2572 12.8684 12.6592 12.8712 13.2107C12.874 13.765 12.4852 14.1576 11.9028 14.1819C11.7018 14.1904 11.4989 14.1847 11.298 14.1847C11.096 14.1838 10.8941 14.1838 10.6922 14.1847Z" fill="#F582AE"/>
</svg>
