<svg width="25" height="24" viewBox="0 0 25 24" fill="none" xmlns="http://www.w3.org/2000/svg">
<path d="M22.4284 11.7737C22.2755 9.64879 22.1739 7.875 22.0129 6.10724C21.8217 4.01552 20.0288 2.3363 17.7309 2.03044C16.7841 1.90468 15.8383 1.77791 14.8926 1.64611C14.305 1.5636 14.0233 1.23762 14.0746 0.71645C14.1209 0.25464 14.5093 -0.0572569 15.0526 0.00914704C16.2991 0.161071 17.5689 0.237536 18.7802 0.539373C21.367 1.1843 22.9949 2.86552 23.5603 5.48747C24.3843 9.30369 24.2656 13.1481 23.7857 16.9925C23.6881 17.7692 23.5975 18.5731 23.3219 19.2955C22.4224 21.6518 20.6556 22.9859 18.1836 23.4407C13.9629 24.2174 9.75635 24.1792 5.54271 23.3662C2.795 22.836 0.854193 20.8097 0.486959 18.0278C0.0905478 15.0285 -0.150921 12.0232 0.106646 9.00387C0.216313 7.72207 0.370249 6.43222 0.658 5.18161C1.2506 2.60192 3.48922 0.700352 6.12626 0.388454C7.09113 0.274763 8.05198 0.129882 9.01685 0.0161899C9.57122 -0.049208 9.97266 0.198298 10.0833 0.631936C10.2322 1.21146 9.85495 1.64107 9.16173 1.71955C8.09725 1.83928 7.02976 1.94895 5.97132 2.11697C3.9953 2.42987 2.40462 4.06784 2.13297 6.05493C1.58665 10.0472 1.57961 14.0415 2.13398 18.0338C2.40261 19.9666 4.09289 21.4606 6.2973 21.8178C9.03798 22.2615 11.7887 22.4879 14.5586 22.2203C15.8404 22.0965 17.1262 21.9416 18.3858 21.683C20.3931 21.2715 21.8016 19.6225 22.0149 17.4422C22.2111 15.444 22.3107 13.4358 22.4284 11.7737Z" fill="#F582AE"/>
<path d="M11.2605 6.1404C10.1025 7.07609 9.04603 7.92626 7.99464 8.78147C7.70488 9.0179 7.40103 9.1658 7.02776 9.00281C6.41 8.73317 6.35969 8.00776 6.93218 7.53891C8.21599 6.48852 9.50583 5.44517 10.7927 4.3988C11.0402 4.19758 11.2847 3.99434 11.5352 3.79815C11.9034 3.5104 12.2717 3.52449 12.6339 3.81525C14.0454 4.94714 15.457 6.07903 16.8686 7.21091C17.0125 7.32661 17.1604 7.43729 17.2962 7.56104C17.6866 7.91821 17.7379 8.34984 17.4411 8.71707C17.1282 9.10443 16.6583 9.17788 16.2358 8.85994C15.7136 8.46756 15.2176 8.04096 14.7115 7.62845C14.141 7.16362 13.5696 6.6988 12.8995 6.15348C12.8995 6.41809 12.8995 6.58913 12.8995 6.75916C12.8995 9.6588 12.8995 12.5584 12.8995 15.4571C12.8995 15.5909 12.9075 15.7267 12.8934 15.8595C12.8492 16.2942 12.5161 16.6071 12.0986 16.6171C11.664 16.6272 11.3098 16.3042 11.2665 15.8454C11.2525 15.6955 11.2615 15.5436 11.2615 15.3927C11.2615 12.5273 11.2615 9.66081 11.2615 6.79538C11.2605 6.61428 11.2605 6.43519 11.2605 6.1404Z" fill="#F582AE"/>
</svg>
