<svg width="24" height="25" viewBox="0 0 24 25" fill="none" xmlns="http://www.w3.org/2000/svg">
<g id="Iconly/Bold/Notification">
<g id="Notification">
<path id="Notification_2" fill-rule="evenodd" clip-rule="evenodd" d="M18.7071 8.81195C18.7071 10.0679 19.039 10.8082 19.7695 11.6612C20.3231 12.2897 20.5 13.0964 20.5 13.9716C20.5 14.8459 20.2128 15.6758 19.6373 16.3496C18.884 17.1573 17.8215 17.673 16.7372 17.7626C15.1659 17.8966 13.5937 18.0094 12.0005 18.0094C10.4063 18.0094 8.83505 17.9419 7.26375 17.7626C6.17846 17.673 5.11602 17.1573 4.36367 16.3496C3.78822 15.6758 3.5 14.8459 3.5 13.9716C3.5 13.0964 3.6779 12.2897 4.23049 11.6612C4.98384 10.8082 5.29392 10.0679 5.29392 8.81195V8.38592C5.29392 6.70396 5.71333 5.60414 6.577 4.52749C7.86106 2.95732 9.91935 2.01562 11.9558 2.01562H12.0452C14.1254 2.01562 16.2502 3.00264 17.5125 4.64029C18.3314 5.69479 18.7071 6.74828 18.7071 8.38592V8.81195ZM9.07367 20.0765C9.07367 19.5729 9.53582 19.3422 9.96318 19.2435C10.4631 19.1378 13.5093 19.1378 14.0092 19.2435C14.4366 19.3422 14.8987 19.5729 14.8987 20.0765C14.8738 20.5559 14.5926 20.9809 14.204 21.2508C13.7001 21.6436 13.1088 21.8924 12.4906 21.982C12.1487 22.0263 11.8128 22.0273 11.4828 21.982C10.8636 21.8924 10.2723 21.6436 9.76938 21.2498C9.37978 20.9809 9.09852 20.5559 9.07367 20.0765Z" fill="#F582AE"/>
</g>
</g>
</svg>
